<svg width="21" height="21" viewBox="0 0 21 21" fill="none" xmlns="http://www.w3.org/2000/svg">
    <path d="M20.4586 10.2456C20.4586 9.51343 20.3927 8.81284 20.2702 8.13916H10.7936V11.9988L16.2514 12C16.03 13.2842 15.3176 14.3789 14.2261 15.1087V17.6128H17.4748C19.3718 15.869 20.4586 13.2912 20.4586 10.2456Z" fill="#4285F4"/>
    <path d="M14.2272 15.1088C13.3229 15.7146 12.1583 16.069 10.796 16.069C8.16423 16.069 5.93167 14.3076 5.13214 11.9333H1.78096V14.5158C3.44125 17.7883 6.85366 20.0339 10.796 20.0339C13.5207 20.0339 15.8098 19.1439 17.476 17.6117L14.2272 15.1088Z" fill="#34A853"/>
    <path d="M4.81656 10.0175C4.81656 9.35087 4.92842 8.70643 5.13213 8.10058V5.51813H1.78094C1.09446 6.87134 0.708237 8.39883 0.708237 10.0175C0.708237 11.6362 1.09563 13.1637 1.78094 14.5169L5.13213 11.9345C4.92842 11.3286 4.81656 10.6842 4.81656 10.0175Z" fill="#FABB05"/>
    <path d="M10.796 3.96491C12.2831 3.96491 13.6149 4.47368 14.6664 5.46783L17.5454 2.61052C15.7968 0.992982 13.5172 0 10.796 0C6.85484 0 3.44125 2.24561 1.78096 5.51812L5.13214 8.10058C5.93167 5.72631 8.16423 3.96491 10.796 3.96491Z" fill="#E94235"/>
</svg>
